<svg width="317" height="59" viewBox="0 0 317 59" fill="none" xmlns="http://www.w3.org/2000/svg">
<path d="M84.7717 44.688C82.2204 44.688 79.9271 43.9427 77.8917 42.452C75.8564 40.9613 74.4517 38.8687 73.6777 36.174L78.2357 34.325C78.6944 36.0163 79.4971 37.4067 80.6437 38.496C81.8191 39.5567 83.2237 40.087 84.8577 40.087C86.3771 40.087 87.6671 39.7 88.7277 38.926C89.7884 38.1233 90.3187 37.034 90.3187 35.658C90.3187 34.3967 89.8457 33.3647 88.8997 32.562C87.9824 31.7307 86.3627 30.8993 84.0407 30.068L82.1057 29.38C80.0417 28.6633 78.3074 27.6313 76.9027 26.284C75.4981 24.9367 74.7957 23.1593 74.7957 20.952C74.7957 19.4327 75.2114 18.028 76.0427 16.738C76.8741 15.448 78.0207 14.4303 79.4827 13.685C80.9734 12.911 82.6504 12.524 84.5137 12.524C87.2084 12.524 89.3584 13.1833 90.9637 14.502C92.5691 15.792 93.6441 17.254 94.1887 18.888L89.8457 20.737C89.5304 19.7623 88.9284 18.9023 88.0397 18.157C87.1511 17.4117 86.0044 17.039 84.5997 17.039C83.1951 17.039 82.0054 17.3973 81.0307 18.114C80.0847 18.8307 79.6117 19.748 79.6117 20.866C79.6117 21.9267 80.0417 22.801 80.9017 23.489C81.7617 24.177 83.1091 24.8363 84.9437 25.467L86.8787 26.112C89.5161 27.0293 91.5514 28.2333 92.9847 29.724C94.4467 31.186 95.1777 33.1497 95.1777 35.615C95.1777 37.6217 94.6617 39.313 93.6297 40.689C92.5977 42.0363 91.2791 43.0397 89.6737 43.699C88.0971 44.3583 86.4631 44.688 84.7717 44.688ZM99.9141 22.07H104.429V24.951H104.644C105.303 23.8903 106.235 23.0303 107.439 22.371C108.643 21.7117 109.933 21.382 111.309 21.382C112.886 21.382 114.262 21.7547 115.437 22.5C116.612 23.2167 117.458 24.177 117.974 25.381C118.719 24.177 119.708 23.2167 120.941 22.5C122.202 21.7547 123.679 21.382 125.37 21.382C127.893 21.382 129.799 22.156 131.089 23.704C132.408 25.2233 133.067 27.3017 133.067 29.939V44H128.337V30.756C128.337 27.4307 126.918 25.768 124.08 25.768C122.561 25.768 121.314 26.3843 120.339 27.617C119.364 28.8497 118.877 30.369 118.877 32.175V44H114.147V30.756C114.147 27.4307 112.685 25.768 109.761 25.768C108.27 25.768 107.038 26.3843 106.063 27.617C105.117 28.8497 104.644 30.369 104.644 32.175V44H99.9141V22.07ZM141.172 18.888C140.283 18.888 139.524 18.587 138.893 17.985C138.291 17.3543 137.99 16.5947 137.99 15.706C137.99 14.8173 138.291 14.072 138.893 13.47C139.524 12.8393 140.283 12.524 141.172 12.524C142.061 12.524 142.806 12.8393 143.408 13.47C144.039 14.072 144.354 14.8173 144.354 15.706C144.354 16.5947 144.039 17.3543 143.408 17.985C142.806 18.587 142.061 18.888 141.172 18.888ZM138.807 22.07H143.537V44H138.807V22.07ZM158.2 44.344C157.225 44.344 156.308 44.1863 155.448 43.871C154.588 43.5557 153.886 43.14 153.341 42.624C152.108 41.3913 151.492 39.7143 151.492 37.593V26.241H147.665V22.07H151.492V15.878H156.222V22.07H161.554V26.241H156.222V36.561C156.222 37.7363 156.451 38.5677 156.91 39.055C157.34 39.6283 158.085 39.915 159.146 39.915C159.633 39.915 160.063 39.8577 160.436 39.743C160.809 39.5997 161.21 39.3847 161.64 39.098V43.699C160.694 44.129 159.547 44.344 158.2 44.344ZM175.36 44.688C173.181 44.688 171.218 44.1863 169.469 43.183C167.749 42.1797 166.402 40.8037 165.427 39.055C164.481 37.2777 164.008 35.271 164.008 33.035C164.008 30.799 164.481 28.8067 165.427 27.058C166.402 25.2807 167.749 23.8903 169.469 22.887C171.218 21.8837 173.181 21.382 175.36 21.382C177.768 21.382 179.818 21.9267 181.509 23.016C183.2 24.1053 184.404 25.5817 185.121 27.445L180.778 29.251C179.803 26.929 177.954 25.768 175.231 25.768C174.056 25.768 172.966 26.069 171.963 26.671C170.988 27.273 170.2 28.133 169.598 29.251C169.025 30.3403 168.738 31.6017 168.738 33.035C168.738 34.4683 169.025 35.744 169.598 36.862C170.2 37.98 170.988 38.84 171.963 39.442C172.966 40.044 174.056 40.345 175.231 40.345C176.607 40.345 177.782 40.044 178.757 39.442C179.76 38.8113 180.52 37.9227 181.036 36.776L185.293 38.625C184.462 40.4883 183.2 41.9647 181.509 43.054C179.818 44.1433 177.768 44.688 175.36 44.688ZM189.315 13.212H194.045V21.597L193.83 24.951H194.045C194.676 23.919 195.608 23.0733 196.84 22.414C198.102 21.726 199.449 21.382 200.882 21.382C203.548 21.382 205.584 22.1703 206.988 23.747C208.393 25.295 209.095 27.4163 209.095 30.111V44H204.365V30.756C204.365 29.0933 203.921 27.8463 203.032 27.015C202.172 26.1837 201.04 25.768 199.635 25.768C198.575 25.768 197.614 26.069 196.754 26.671C195.923 27.273 195.264 28.0757 194.776 29.079C194.289 30.0537 194.045 31.1 194.045 32.218V44H189.315V13.212ZM239.015 44.688C236.034 44.688 233.31 43.9857 230.845 42.581C228.38 41.1763 226.445 39.2413 225.04 36.776C223.635 34.3107 222.933 31.5873 222.933 28.606C222.933 25.6247 223.635 22.9013 225.04 20.436C226.445 17.9707 228.38 16.0357 230.845 14.631C233.31 13.2263 236.034 12.524 239.015 12.524C241.337 12.524 243.444 12.954 245.336 13.814C247.257 14.674 248.948 15.921 250.41 17.555L246.97 20.866C245.909 19.6047 244.734 18.673 243.444 18.071C242.154 17.4403 240.678 17.125 239.015 17.125C236.951 17.125 235.059 17.598 233.339 18.544C231.648 19.49 230.3 20.8373 229.297 22.586C228.294 24.306 227.792 26.3127 227.792 28.606C227.792 30.8993 228.294 32.9203 229.297 34.669C230.3 36.389 231.648 37.722 233.339 38.668C235.059 39.614 236.951 40.087 239.015 40.087C242.455 40.087 245.379 38.6537 247.787 35.787L251.27 39.141C249.779 40.8897 247.988 42.2513 245.895 43.226C243.802 44.2007 241.509 44.688 239.015 44.688ZM261.913 44.688C260.337 44.688 258.932 44.387 257.699 43.785C256.467 43.1543 255.506 42.28 254.818 41.162C254.13 40.0153 253.786 38.7253 253.786 37.292C253.786 35.0273 254.632 33.2357 256.323 31.917C258.043 30.5983 260.208 29.939 262.816 29.939C264.106 29.939 265.267 30.068 266.299 30.326C267.331 30.5553 268.148 30.8133 268.75 31.1V29.982C268.75 28.6347 268.249 27.5453 267.245 26.714C266.242 25.854 264.952 25.424 263.375 25.424C262.257 25.424 261.197 25.6677 260.193 26.155C259.219 26.6423 258.43 27.316 257.828 28.176L254.517 25.639C255.492 24.2917 256.753 23.2453 258.301 22.5C259.849 21.7547 261.569 21.382 263.461 21.382C266.643 21.382 269.094 22.1703 270.814 23.747C272.534 25.295 273.394 27.488 273.394 30.326V44H268.75V41.377H268.535C267.905 42.323 267.016 43.1113 265.869 43.742C264.723 44.3727 263.404 44.688 261.913 44.688ZM262.73 40.775C263.877 40.775 264.909 40.5027 265.826 39.958C266.744 39.4133 267.46 38.6823 267.976 37.765C268.492 36.8477 268.75 35.8587 268.75 34.798C268.091 34.4253 267.317 34.1243 266.428 33.895C265.568 33.6657 264.665 33.551 263.719 33.551C261.942 33.551 260.638 33.9093 259.806 34.626C258.975 35.314 258.559 36.217 258.559 37.335C258.559 38.3383 258.946 39.1697 259.72 39.829C260.494 40.4597 261.498 40.775 262.73 40.775ZM278.549 22.07H283.064V25.295H283.279C283.766 24.177 284.612 23.2597 285.816 22.543C287.02 21.7977 288.296 21.425 289.643 21.425C290.704 21.425 291.592 21.5683 292.309 21.855V26.757C291.048 26.2983 289.915 26.069 288.912 26.069C287.823 26.069 286.848 26.3557 285.988 26.929C285.157 27.5023 284.497 28.2763 284.01 29.251C283.523 30.197 283.279 31.2433 283.279 32.39V44H278.549V22.07ZM304.651 44.688C302.501 44.688 300.566 44.1863 298.846 43.183C297.155 42.1797 295.822 40.8037 294.847 39.055C293.901 37.2777 293.428 35.2853 293.428 33.078C293.428 30.9853 293.887 29.0503 294.804 27.273C295.75 25.467 297.054 24.0337 298.717 22.973C300.38 21.9123 302.272 21.382 304.393 21.382C306.6 21.382 308.507 21.8693 310.112 22.844C311.746 23.8187 312.979 25.1517 313.81 26.843C314.67 28.5343 315.1 30.4407 315.1 32.562C315.1 32.9633 315.057 33.465 314.971 34.067H298.158C298.33 36.1023 299.047 37.679 300.308 38.797C301.598 39.8863 303.089 40.431 304.78 40.431C306.127 40.431 307.288 40.13 308.263 39.528C309.266 38.8973 310.069 38.0517 310.671 36.991L314.67 38.883C313.638 40.689 312.291 42.108 310.628 43.14C308.965 44.172 306.973 44.688 304.651 44.688ZM310.284 30.455C310.227 29.681 309.983 28.9213 309.553 28.176C309.123 27.402 308.464 26.757 307.575 26.241C306.715 25.725 305.654 25.467 304.393 25.467C302.874 25.467 301.584 25.9257 300.523 26.843C299.491 27.7317 298.774 28.9357 298.373 30.455H310.284Z" fill="white"/>
<g clip-path="url(#clip0_1558_709)">
<path d="M0.251953 29.581C0.251953 13.4216 13.352 0.321289 29.5117 0.321289C45.6713 0.321289 58.7718 13.4216 58.7718 29.581C58.7718 45.741 45.6713 58.8412 29.5117 58.8412C13.352 58.8412 0.251953 45.741 0.251953 29.581Z" fill="black"/>
<path d="M10.3008 19.3242C42.0115 25.2234 29.479 47.8543 29.479 47.8543C29.479 47.8543 24.3912 42.1912 29.3664 30.509" stroke="white" stroke-width="2.30469" stroke-miterlimit="2" stroke-linecap="round" stroke-linejoin="round"/>
<path d="M31.8418 26.2803C35.0846 22.2633 40.6451 19.8875 48.3827 19.3389" stroke="white" stroke-width="2.30469" stroke-miterlimit="2" stroke-linecap="round" stroke-linejoin="round"/>
<path fill-rule="evenodd" clip-rule="evenodd" d="M24.6855 15.8945C24.6855 13.323 26.7703 11.2383 29.3418 11.2383C31.9134 11.2383 33.9983 13.323 33.9983 15.8945C33.9983 18.4659 31.9134 20.5507 29.3418 20.5507C26.7703 20.5507 24.6855 18.4659 24.6855 15.8945Z" stroke="white" stroke-width="2.30469" stroke-miterlimit="2" stroke-linecap="round" stroke-linejoin="round"/>
</g>
<defs>
<clipPath id="clip0_1558_709">
<rect width="59" height="59" fill="white"/>
</clipPath>
</defs>
</svg>
